<svg t="1726370807819" class="icon" viewBox="0 0 1024 1024" version="1.1"
    xmlns="http://www.w3.org/2000/svg" p-id="9213" width="200" height="200">
    <path
        d="M910.620444 408.632889c-1.322667 75.904-25.884444 166.741333-96.711111 268.202667 0 0 38.556444 288.156444 38.727111 288.782222H449.678222s-23.324444-126.961778-23.466666-126.933334c-32.241778 0-83.086222 1.664-125.710223 1.664-16.341333 0-31.473778-0.241778-43.889777-0.924444-2.901333 0.526222-5.831111 0.796444-8.789334 0.810667-4.266667 0.085333-8.533333-0.711111-12.487111-2.360889-31.573333-15.203556-10.282667-81.834667-10.282667-81.834667-17.265778-7.196444-28.8-19.185778-28.8-28.273778 0-13.056 17.351111-22.528 41.443556-25.884444v-0.085333h-10.808889c-18.488889 0-33.408-9.713778-33.408-21.589334a16.739556 16.739556 0 0 1 3.271111-10.752c-3.271111-14.222222-16.398222-76.16-19.328-76.302222-103.822222-4.920889-49.379556-41.088-49.379555-41.088 19.427556-21.048889 49.635556-43.406222 61.255111-69.802667 16.711111-37.745778-2.261333-75.719111-1.664-114.488889a317.582222 317.582222 0 0 1 20.821333-98.631111 269.653333 269.653333 0 0 1 91.235556-118.613333A382.208 382.208 0 0 1 554.069333 56.888889c198.129778 0 358.727111 141.966222 358.727111 317.127111 0 11.576889-0.725333 23.125333-2.176 34.602667zM554.069333 113.692444a340.266667 340.266667 0 0 0-120.120889 21.504 306.645333 306.645333 0 0 0-96.469333 57.742223l-1.635555 1.422222-1.706667 1.308444a212.508444 212.508444 0 0 0-72.533333 93.539556 263.552 263.552 0 0 0-17.166223 79.288889v0.113778c0.327111 10.410667 1.521778 20.778667 3.555556 31.004444a177.009778 177.009778 0 0 1-6.727111 105.557333 164.437333 164.437333 0 0 1-28.728889 42.752 99.441778 99.441778 0 0 1 27.548444 55.864889c3.427556 14.008889 7.04 30.307556 9.671111 42.211556 1.009778 4.551111 1.877333 8.533333 2.389334 10.695111l5.831111 25.244444-13.795556 18.944-0.256 0.440889 1.422223 1.507556c0.512 0.284444 1.024 0.554667 1.564444 0.782222l48.128 20.053333-15.857778 49.635556a90.936889 90.936889 0 0 0-2.460444 10.026667c6.968889 0.142222 14.862222 0.227556 23.779555 0.227555 21.816889 0 45.710222-0.455111 68.892445-0.896v-0.568889l50.304-0.184889H426.168889a56.732444 56.732444 0 0 1 56.888889 51.783111l2.702222 14.506667c2.204444 11.904 5.148444 27.804444 8.064 43.690667l3.128889 16.967111h290.702222l-10.766222-80.312889-19.299556-144.156444-2.929777-21.902223 12.657777-18.147555c56.078222-80.256 85.191111-159.886222 86.542223-236.657778v-3.029333l0.369777-2.986667c1.166222-9.159111 1.749333-18.375111 1.749334-27.591111 0-143.587556-135.438222-260.380444-301.909334-260.380445z m145.294223 276.352a72.533333 72.533333 0 0 1-78.691556-40.817777l-54.385778 31.488a108.088889 108.088889 0 0 1-7.523555 107.804444l102.058666 59.093333a36.437333 36.437333 0 1 1-10.88 25.941334c0.184889-3.399111 0.867556-6.741333 2.019556-9.955556l-104.874667-60.714666a109.368889 109.368889 0 1 1-4.266666-154.552889 108.088889 108.088889 0 0 1 14.421333 16.64l57.671111-33.393778a72.632889 72.632889 0 1 1 84.437333 58.467555h0.014223z"
        fill="#323233" p-id="9214"></path>
</svg>