<svg width="300" height="100" xmlns="http://www.w3.org/2000/svg" viewBox="0 0 300 100">
    <!-- 背景保持透明 -->
    <rect width="100%" height="100%" fill="none" rx="15" ry="15" />

    <!-- 符号 -->
    <svg t="1726580551260" class="icon" viewBox="0 0 1024 1024" version="1.1"
        xmlns="http://www.w3.org/2000/svg" p-id="5480" width="95" height="95">
        <path
            d="M523.008 85.376a22.058667 22.058667 0 0 1 20.565333 20.565333l-0.042666 323.370667 55.722666-134.4a11.008 11.008 0 0 1 11.946667-6.698667l2.432 0.682667a11.093333 11.093333 0 0 1 5.930667 14.378667l-55.808 134.613333 189.013333-188.970667a22.016 22.016 0 0 1 31.104 31.104l-188.885333 188.8 134.442666-55.637333a11.008 11.008 0 0 1 8.448 20.309333l-134.570666 55.722667h323.584a22.016 22.016 0 1 1 0 43.989333h-323.498667l134.4 55.68a11.008 11.008 0 0 1-1.578667 20.864l-2.56 0.341334a10.922667 10.922667 0 0 1-4.224-0.853334L594.773333 553.386667l189.098667 189.098666a21.930667 21.930667 0 0 1-12.074667 37.290667l-3.498666 0.256a21.76 21.76 0 0 1-15.488-6.485333l-188.970667-189.013334 55.765333 134.613334a11.093333 11.093333 0 0 1-3.712 13.141333l-2.218666 1.28-2.090667 0.554667-2.133333 0.170666a10.922667 10.922667 0 0 1-10.154667-6.784L543.530667 593.066667v323.541333a22.058667 22.058667 0 0 1-18.005334 21.632l-3.968 0.384a22.058667 22.058667 0 0 1-21.973333-22.016l-0.042667-323.669333-55.722666 134.528a10.837333 10.837333 0 0 1-7.509334 6.528l-2.645333 0.298666a11.093333 11.093333 0 0 1-10.154667-15.189333l55.68-134.442667-188.8 188.842667a21.888 21.888 0 0 1-12.117333 6.229333l-3.456 0.298667a21.845333 21.845333 0 0 1-12.928-4.224l-2.645333-2.261333a21.930667 21.930667 0 0 1-0.042667-31.061334l189.013333-189.056-134.570666 55.808-2.090667 0.64-2.133333 0.213334a11.093333 11.093333 0 0 1-4.181334-21.205334l134.357334-55.68h-323.413334a22.058667 22.058667 0 0 1 0-43.946666l323.541334-0.042667-134.485334-55.722667a10.965333 10.965333 0 0 1 8.362667-20.309333l134.528 55.722667-188.885333-188.842667a21.973333 21.973333 0 0 1 31.104-31.104l188.928 189.013333-55.765334-134.656a10.965333 10.965333 0 1 1 20.309334-8.405333l55.722666 134.528V105.941333a22.058667 22.058667 0 0 1 23.466667-20.565333z"
            fill="#444444" p-id="5481"></path>
    </svg>

    <!-- 圆润化的"0penai"文字 -->
    <text x="55%" y="50%" text-anchor="middle" dominant-baseline="central"
        font-family="Verdana, sans-serif" font-size="36" fill="#444" font-weight="bold">
        <tspan font-weight="normal" font-size="72" fill="#444">0</tspan>penai </text>

    <!-- 更加圆润和柔和的".icu"文字 -->
    <text x="60%" y="75%" text-anchor="middle" dominant-baseline="central"
        font-family="Arial, sans-serif" font-size="14" font-weight="bold" fill="#666666">
        是0不是O
    </text>
</svg>