<svg width="300" height="100" xmlns="http://www.w3.org/2000/svg" viewBox="0 0 300 100">
    <!-- 背景保持透明 -->
    <rect width="100%" height="100%" fill="none" rx="15" ry="15" />

    <!-- 替换新的圆润科技感符号 -->
    <svg x="25" y="20" width="60" height="60" viewBox="0 0 1024 1024">
        <path
            d="M512 524.8c-17.066667 0-38.4-4.266667-55.466667-12.8L179.2 358.4c-25.6-12.8-42.666667-42.666667-42.666667-72.533333s17.066667-55.466667 42.666667-72.533334l277.333333-149.333333c34.133333-17.066667 76.8-17.066667 106.666667 0L840.533333 213.333333c25.6 12.8 42.666667 42.666667 42.666667 72.533334s-17.066667 55.466667-42.666667 72.533333l-277.333333 149.333333c-12.8 8.533333-34.133333 17.066667-51.2 17.066667z m0-405.333333c-8.533333 0-17.066667 0-25.6 4.266666L209.066667 273.066667c-4.266667 4.266667-4.266667 12.8-4.266667 17.066666s0 8.533333 8.533333 12.8l277.333334 149.333334c17.066667 8.533333 34.133333 8.533333 46.933333 0l277.333333-149.333334c8.533333-4.266667 8.533333-12.8 8.533334-12.8s0-8.533333-8.533334-12.8L537.6 128c-8.533333-8.533333-17.066667-8.533333-25.6-8.533333zM418.133333 968.533333c-12.8 0-25.6-4.266667-34.133333-8.533333l-260.266667-128c-42.666667-21.333333-68.266667-64-68.266666-115.2v-243.2c0-25.6 12.8-51.2 38.4-68.266667 25.6-12.8 51.2-17.066667 76.8-4.266666l260.266666 128c42.666667 21.333333 68.266667 64 68.266667 115.2v243.2c0 25.6-12.8 51.2-38.4 68.266666-12.8 8.533333-29.866667 12.8-42.666667 12.8zM132.266667 460.8c-4.266667 0-8.533333 0-8.533334 4.266667-4.266667 0-8.533333 4.266667-8.533333 12.8v243.2c0 25.6 12.8 46.933333 34.133333 55.466666l256 128c8.533333 4.266667 12.8 0 17.066667 0 4.266667 0 8.533333-4.266667 8.533333-12.8v-243.2c0-25.6-12.8-46.933333-34.133333-55.466666l-256-128c-4.266667-4.266667-4.266667-4.266667-8.533333-4.266667zM605.866667 968.533333c-12.8 0-29.866667-4.266667-42.666667-12.8-25.6-12.8-38.4-38.4-38.4-68.266666v-243.2c0-46.933333 25.6-89.6 68.266667-115.2l260.266666-128c25.6-12.8 55.466667-12.8 76.8 4.266666 25.6 12.8 38.4 38.4 38.4 68.266667v243.2c0 46.933333-25.6 89.6-68.266666 115.2l-260.266667 128c-8.533333 8.533333-21.333333 8.533333-34.133333 8.533333z m277.333333-507.733333l-256 128c-21.333333 12.8-34.133333 34.133333-34.133333 55.466667v243.2c0 8.533333 4.266667 12.8 8.533333 12.8s8.533333 4.266667 17.066667 0l256-128c21.333333-12.8 34.133333-34.133333 34.133333-55.466667v-243.2c0-8.533333-4.266667-12.8-8.533333-12.8s-8.533333-4.266667-17.066667 0z"
            fill="#292D32"></path>
    </svg>

    <!-- 圆润化的"0penai"文字 -->
    <text x="55%" y="50%" text-anchor="middle" dominant-baseline="central"
        font-family="Verdana, sans-serif" font-size="36" fill="#444" font-weight="bold">
        <tspan font-weight="normal" font-size="72" fill="#444">0</tspan>penai </text>

    <!-- 更加圆润和柔和的".icu"文字 -->
    <text x="60%" y="75%" text-anchor="middle" dominant-baseline="central"
        font-family="Arial, sans-serif" font-size="14" font-weight="bold" fill="#888">
        是0不是O
    </text>
</svg>